<?xml version="1.0" standalone="no"?>
<!DOCTYPE svg PUBLIC "-//W3C//DTD SVG 20010904//EN"
 "http://www.w3.org/TR/2001/REC-SVG-20010904/DTD/svg10.dtd">
<svg version="1.0" xmlns="http://www.w3.org/2000/svg"
 width="1024.000000pt" height="1024.000000pt" viewBox="0 0 1024.000000 1024.000000"
 preserveAspectRatio="xMidYMid meet">

<g transform="translate(0.000000,1024.000000) scale(0.100000,-0.100000)"
fill="#000000" stroke="none">
<path d="M4799 8227 c-24 -13 -170 -93 -324 -177 -154 -84 -377 -206 -495
-270 -118 -64 -296 -161 -395 -215 l-180 -98 -447 -561 c-246 -308 -446 -562
-444 -563 5 -5 743 146 798 163 9 3 41 39 70 80 29 41 98 137 153 213 55 76
179 247 275 381 260 361 214 316 476 466 126 72 270 155 319 184 191 112 258
150 263 150 3 0 53 -31 111 -69 140 -90 517 -328 700 -441 87 -54 92 -58 164
-170 40 -63 191 -293 334 -510 l261 -395 156 -3 c86 -1 156 1 156 5 0 8 -200
308 -391 588 -53 77 -160 235 -239 350 -79 116 -154 225 -168 242 -15 21 -155
115 -381 257 -196 123 -414 261 -486 306 -199 126 -207 128 -286 87z"/>
<path d="M4804 7744 c-38 -19 -105 -55 -149 -80 -44 -25 -179 -100 -300 -168
l-220 -123 -77 -109 c-42 -60 -207 -287 -365 -504 l-288 -395 -175 -37 c-96
-21 -253 -54 -347 -75 l-173 -37 -2 -351 c0 -192 0 -443 2 -557 2 -206 2 -208
-19 -208 -14 0 -21 6 -21 18 0 24 -19 42 -45 42 -27 0 -45 -18 -45 -47 0 -22
-3 -23 -92 -23 -51 0 -130 -3 -174 -6 l-82 -7 -7 31 c-8 39 -28 56 -58 48 -23
-5 -47 -42 -47 -71 0 -10 -27 -14 -122 -17 -68 -2 -127 0 -132 4 -6 4 24 8 65
9 40 0 94 4 119 9 36 7 26 8 -48 6 -118 -4 -111 6 8 14 76 4 90 3 91 -10 0 -8
5 -1 10 16 10 35 24 49 54 57 16 4 14 5 -6 6 -18 1 -32 -7 -43 -24 -17 -26
-36 -33 -36 -13 0 6 3 9 6 5 3 -3 17 7 31 23 20 24 32 30 64 28 36 -1 52 -12
30 -20 -5 -1 -2 -10 7 -18 14 -13 15 -12 8 5 -4 11 -3 16 1 11 4 -4 8 -15 9
-24 3 -55 -4 -52 117 -51 75 1 104 4 87 9 -16 6 2 7 46 3 61 -4 72 -3 78 12 3
9 3 22 -1 27 -3 6 -1 8 4 5 6 -4 22 4 36 17 14 13 28 19 29 14 3 -8 11 -7 25
0 16 9 22 9 26 -1 11 -30 12 13 7 248 -3 138 -7 246 -8 241 -1 -6 -9 -1 -17
10 -13 16 -14 16 -9 2 3 -10 1 -18 -5 -18 -10 0 -15 14 -12 33 1 8 -42 0 -74
-15 -19 -9 -19 -8 -2 5 14 11 15 16 5 20 -7 3 3 4 22 1 35 -4 35 -4 -4 8 -30
8 -48 8 -70 0 -16 -7 -32 -8 -35 -4 -4 5 -24 3 -46 -4 l-40 -12 45 -3 45 -2
-39 -4 c-21 -3 -43 0 -48 5 -29 29 140 54 209 31 21 -7 40 -13 43 -14 3 0 11
-4 18 -9 7 -4 16 -5 19 -2 9 9 -77 44 -125 52 -62 10 -158 -13 -182 -44 l-20
-24 -10 26 c-5 14 -14 26 -19 26 -5 0 -8 13 -6 30 2 16 -1 33 -7 36 -7 4 -8 3
-4 -4 10 -17 -9 -15 -24 2 -6 8 -18 12 -25 10 -7 -3 -19 4 -25 17 -10 19 -10
21 3 16 10 -4 14 0 13 11 -2 10 -20 23 -44 32 -23 8 -42 18 -42 22 0 9 63 -15
98 -38 13 -9 20 -20 16 -27 -4 -7 -4 -9 0 -5 9 7 39 -21 56 -52 8 -15 8 -20 1
-16 -16 10 -14 -10 2 -26 8 -7 16 -20 20 -28 3 -8 6 -1 6 16 1 17 -11 49 -28
76 -112 176 -367 166 -457 -19 l-29 -58 -1 -580 c-1 -319 1 -566 3 -549 4 30
7 32 56 38 29 3 90 6 138 6 47 0 186 7 310 15 518 35 1492 72 1667 63 l72 -3
0 690 c0 609 2 693 16 713 l15 22 758 0 c575 0 760 -3 769 -12 9 -9 12 -180
12 -710 l0 -698 208 0 c114 0 258 -3 320 -7 l112 -6 0 384 c0 379 0 384 21
397 12 7 18 16 15 19 -3 3 -12 0 -21 -7 -13 -11 -15 32 -15 399 l0 412 -330
492 c-256 380 -339 497 -368 516 -20 12 -118 73 -217 133 -99 61 -248 152
-330 203 -83 50 -160 97 -171 103 -17 9 -33 5 -90 -24z m377 -614 c18 -10 19
-24 19 -313 0 -222 -3 -306 -12 -315 -17 -17 -599 -17 -616 0 -9 9 -12 91 -12
309 0 257 2 300 16 313 13 14 55 16 300 16 178 0 293 -4 305 -10z m-3022
-1216 c2 -2 1 -7 -2 -10 -4 -4 -21 1 -39 10 l-33 17 35 -7 c19 -3 37 -8 39
-10z m-109 -2 c0 -5 -18 -17 -40 -27 -23 -10 -44 -23 -47 -28 -3 -5 3 -4 14 1
12 7 25 7 34 1 7 -5 10 -9 4 -10 -71 -8 -87 -7 -74 6 11 11 97 63 107 65 1 0
2 -4 2 -8z m5 -32 c-3 -5 -12 -10 -18 -10 -7 0 -6 4 3 10 19 12 23 12 15 0z
m130 -20 c3 -5 2 -10 -4 -10 -5 0 -13 5 -16 10 -3 6 -2 10 4 10 5 0 13 -4 16
-10z m-268 -82 c0 -34 -1 -38 -7 -18 -7 23 -7 23 -12 -10 -3 -29 -5 -32 -13
-16 -5 13 -2 29 10 52 10 19 19 34 19 34 1 0 2 -19 3 -42z m423 -69 c0 -6 -4
-7 -10 -4 -5 3 -10 11 -10 16 0 6 5 7 10 4 6 -3 10 -11 10 -16z m-458 -290 c0
-162 5 -302 10 -311 6 -14 5 -16 -7 -12 -13 5 -15 48 -15 317 0 171 2 308 5
305 3 -3 6 -138 7 -299z m19 224 c-9 -16 -10 -16 -11 4 0 12 3 30 7 40 7 16 8
16 11 -4 2 -12 -1 -30 -7 -40z m776 -30 c-3 -10 -5 -2 -5 17 0 19 2 27 5 18 2
-10 2 -26 0 -35z m-20 -5 c-3 -7 -5 -2 -5 12 0 14 2 19 5 13 2 -7 2 -19 0 -25z
m-740 0 c-3 -8 -6 -5 -6 6 -1 11 2 17 5 13 3 -3 4 -12 1 -19z m-2 -245 c-4
-41 -9 -72 -11 -70 -3 2 -2 42 2 88 4 46 9 78 12 71 2 -8 1 -47 -3 -89z m762
15 c-2 -13 -4 -3 -4 22 0 25 2 35 4 23 2 -13 2 -33 0 -45z m-532 -108 c3 -5 1
-10 -4 -10 -6 0 -11 5 -11 10 0 6 2 10 4 10 3 0 8 -4 11 -10z m-45 -85 c0 -8
-4 -15 -10 -15 -5 0 -7 7 -4 15 4 8 8 15 10 15 2 0 4 -7 4 -15z m500 11 c0 -2
-7 -9 -15 -16 -13 -11 -14 -10 -9 4 5 14 24 23 24 12z m-323 -82 c-3 -3 -12
-4 -19 -1 -8 3 -5 6 6 6 11 1 17 -2 13 -5z m100 0 c-3 -3 -12 -4 -19 -1 -8 3
-5 6 6 6 11 1 17 -2 13 -5z m193 -172 l0 -58 -171 -3 -170 -3 3 54 3 53 150 5
c83 3 158 7 168 8 14 2 17 -7 17 -56z m160 3 c0 -55 0 -55 -30 -55 l-31 0 3
55 c3 53 4 55 31 55 26 0 27 -2 27 -55z m-610 -20 l0 -55 -124 0 -124 0 -4 50
-3 49 80 4 c44 1 101 4 128 5 l47 2 0 -55z m450 -177 c0 -48 -11 -46 -12 2 -1
30 -3 32 -31 26 -16 -3 -87 -6 -158 -6 l-128 0 -4 -52 -3 -53 -2 57 -2 57 103
4 c56 1 132 4 170 5 l67 2 0 -42z m160 9 c0 -23 -5 -34 -15 -34 -8 0 -15 7
-15 14 0 8 4 12 9 8 6 -3 9 4 8 15 -1 11 -7 20 -14 20 -9 0 -13 -14 -13 -42 0
-51 -7 -46 -15 10 -5 41 -4 42 25 42 27 0 30 -3 30 -33z m-610 -32 c0 -51 -2
-55 -22 -54 -18 1 -19 2 -5 6 14 4 17 13 15 46 -3 41 -4 42 -38 41 -205 -7
-198 -7 -146 -13 42 -5 47 -8 34 -19 -9 -7 -29 -10 -47 -7 -17 3 -31 1 -31 -4
0 -14 21 -19 59 -13 24 4 32 2 27 -6 -4 -7 -26 -12 -49 -13 -41 -1 -41 -1 -12
-10 17 -5 41 -8 55 -5 14 2 41 1 60 -4 27 -6 14 -8 -57 -9 l-93 -1 0 54 c0 64
-7 61 148 65 l102 2 0 -56z m215 17 c-3 -3 -11 0 -18 7 -9 10 -8 11 6 5 10 -3
15 -9 12 -12z m138 11 c-7 -2 -21 -2 -30 0 -10 3 -4 5 12 5 17 0 24 -2 18 -5z
m40 -60 c-7 -2 -19 -2 -25 0 -7 3 -2 5 12 5 14 0 19 -2 13 -5z"/>
<path d="M4725 6992 c-3 -3 -5 -81 -5 -174 l0 -168 160 0 160 0 0 170 0 170
-132 1 c-73 0 -143 2 -156 3 -12 2 -24 0 -27 -2z"/>
<path d="M2323 4973 c3 -5 -15 -6 -39 -4 l-44 3 0 -42 0 -43 148 8 c81 4 153
8 160 8 8 0 12 13 10 39 l-2 38 -119 0 c-65 0 -116 -3 -114 -7z m-16 -39 c-3
-3 -12 -4 -19 -1 -8 3 -5 6 6 6 11 1 17 -2 13 -5z m128 -14 c3 -5 -3 -10 -14
-10 -12 0 -21 5 -21 10 0 6 6 10 14 10 8 0 18 -4 21 -10z m78 3 c-7 -2 -19 -2
-25 0 -7 3 -2 5 12 5 14 0 19 -2 13 -5z m-226 -9 c-3 -3 -12 -4 -19 -1 -8 3
-5 6 6 6 11 1 17 -2 13 -5z"/>
<path d="M2690 4945 c0 -33 4 -45 15 -45 11 0 12 5 5 25 -6 16 -6 25 0 25 6 0
10 9 10 20 0 11 -7 20 -15 20 -11 0 -15 -12 -15 -45z"/>
<path d="M1988 4962 l-107 -3 1 -39 0 -40 114 0 114 0 0 39 c0 22 -3 41 -7 43
-5 2 -56 2 -115 0z m112 -53 c0 -6 -4 -7 -10 -4 -5 3 -10 11 -10 16 0 6 5 7
10 4 6 -3 10 -11 10 -16z"/>
<path d="M8085 7269 c-5 -5 -23 -19 -38 -30 -38 -29 -28 -35 16 -9 26 16 36
17 40 8 38 -95 46 -118 42 -118 -2 0 -12 16 -21 35 -20 43 -27 41 -14 -6 9
-32 8 -33 -6 -14 -8 11 -17 30 -21 43 -3 12 -10 22 -17 23 -55 5 -71 3 -68 -9
1 -8 -2 -11 -7 -8 -5 3 -27 -9 -49 -26 -22 -18 -62 -50 -88 -70 -27 -21 -132
-101 -234 -179 -545 -418 -743 -647 -861 -998 -77 -228 -76 -527 2 -771 41
-127 163 -357 242 -454 l24 -29 5 59 c11 110 86 377 166 589 50 133 127 298
246 530 102 199 157 294 339 593 31 51 57 95 57 98 0 15 -22 -12 -46 -56 -15
-28 -29 -48 -31 -46 -3 2 0 13 6 24 8 15 8 22 -2 25 -9 4 -9 6 1 6 22 1 52 44
46 66 -4 17 -3 18 6 5 9 -11 13 -12 17 -2 2 6 12 12 21 12 15 -1 15 -2 -1 -11
-18 -10 -18 -12 -1 -30 15 -16 15 -19 2 -19 -21 0 -25 -14 -24 -82 1 -34 -2
-54 -8 -51 -6 4 -6 -1 -1 -13 4 -10 9 -30 11 -44 3 -16 0 -14 -6 8 -6 17 -15
32 -21 32 -6 0 -8 -7 -5 -16 3 -8 2 -12 -4 -9 -6 3 -10 -1 -10 -11 0 -9 -9
-32 -21 -51 -18 -29 -19 -36 -7 -51 12 -15 11 -16 -4 -3 -22 17 -24 -1 -3 -23
18 -17 10 -47 -11 -39 -8 3 -14 9 -14 15 0 5 4 7 9 4 5 -4 7 4 3 16 -5 21 -6
21 -15 -7 -7 -21 -7 -30 2 -33 6 -2 16 -13 22 -25 11 -21 11 -21 -11 1 -17 18
-25 21 -36 11 -15 -12 -20 1 -6 16 5 6 19 35 32 65 31 74 73 164 80 170 3 3 5
12 6 20 1 8 4 26 8 40 10 35 -23 -28 -59 -115 -16 -38 -32 -74 -36 -80 -31
-45 -265 -615 -341 -830 -167 -475 -236 -798 -245 -1147 -3 -118 -2 -208 3
-208 5 0 16 5 24 10 13 8 12 10 -4 10 -18 0 -19 7 -12 187 3 102 11 192 16
198 5 7 7 14 4 18 -3 3 1 50 10 105 9 55 16 102 16 106 0 3 8 6 18 6 23 0 54
66 46 98 -9 31 -25 16 -18 -16 4 -21 3 -24 -5 -12 -6 9 -11 10 -11 3 0 -6 -3
-20 -6 -30 -5 -15 -4 -16 6 -3 9 12 11 12 8 1 -6 -23 -28 -25 -28 -4 0 22 26
109 41 137 7 13 7 16 0 11 -14 -8 -14 -4 3 36 7 19 11 41 9 49 -4 13 -3 13 7
0 8 -12 9 -9 4 13 -5 22 -3 27 12 26 11 0 14 -3 7 -6 -9 -3 -10 -10 -3 -23 7
-13 6 -19 -5 -23 -17 -7 -15 -71 3 -89 7 -7 12 -16 12 -22 0 -5 -6 -2 -13 8
-12 17 -14 16 -14 -13 0 -18 4 -27 7 -20 5 7 10 7 13 1 4 -5 -2 -28 -13 -50
-11 -23 -20 -51 -20 -63 0 -13 -10 -33 -22 -46 -18 -20 -19 -23 -5 -23 13 0
17 -9 17 -40 0 -38 -2 -40 -31 -40 -25 0 -29 -3 -24 -19 3 -11 1 -22 -5 -26
-7 -5 -8 -11 -1 -19 7 -8 7 -23 0 -47 -8 -24 -8 -52 -1 -90 l10 -54 1 49 1 48
45 -4 c31 -2 45 1 45 9 0 7 -7 13 -15 13 -10 0 -15 10 -15 30 0 20 5 30 15 30
8 0 15 -8 15 -17 0 -15 2 -15 9 -4 5 8 19 16 30 18 18 2 21 -2 21 -36 0 -22
-5 -41 -10 -43 -7 -2 -7 -14 1 -37 6 -18 15 -28 18 -23 9 15 6 165 -3 180 -4
7 -23 12 -42 12 -24 0 -34 4 -34 16 0 12 9 15 43 13 53 -3 87 8 87 28 0 9 3
13 7 10 8 -8 33 11 33 25 0 6 -8 4 -17 -3 -15 -12 -16 -12 -10 3 4 11 0 18
-11 21 -10 3 -6 5 10 6 18 1 29 -5 33 -19 3 -11 11 -20 17 -20 5 0 8 6 5 14
-4 9 2 13 16 12 38 -3 74 14 86 40 9 20 16 24 34 19 20 -5 20 -5 5 8 -15 12
-15 14 3 25 10 7 24 12 31 11 7 0 2 -5 -12 -10 l-25 -10 25 -14 c31 -18 43
-19 34 -3 -5 7 -3 8 7 3 12 -7 12 -6 1 7 -19 24 2 65 24 47 17 -14 18 -36 2
-42 -7 -2 1 -4 17 -4 38 1 145 76 243 171 277 266 412 628 412 1099 0 394 -75
777 -227 1167 -49 125 -53 132 -68 119z m-89 -121 c-2 -18 -10 -23 -32 -23
-37 -1 -57 -13 -50 -32 3 -8 1 -11 -5 -8 -15 10 -41 -15 -30 -29 7 -8 4 -12
-10 -12 -27 0 -24 10 19 49 86 81 115 96 108 55z m164 -51 c0 -1 11 -31 24
-67 19 -55 21 -67 10 -78 -11 -10 -14 -10 -14 0 0 9 -3 9 -11 -2 -9 -12 -9
-11 -3 5 12 31 7 84 -10 110 -19 28 -20 35 -6 35 6 0 10 -1 10 -3z m-329 -61
c-6 -8 -11 -18 -10 -22 3 -20 -2 -24 -20 -14 -11 5 -22 6 -25 1 -9 -15 40 -31
55 -18 11 10 11 9 1 -4 -8 -11 -25 -15 -57 -14 -40 2 -46 -1 -57 -25 -8 -20
-17 -26 -32 -23 -21 4 -21 4 -2 -11 11 -9 18 -16 15 -17 -2 -1 -23 -2 -47 -4
l-43 -2 43 31 c49 34 55 39 116 92 23 20 42 32 42 28 0 -5 5 -1 11 9 6 10 13
16 16 13 3 -3 1 -12 -6 -20z m393 -136 l7 -25 -16 25 c-13 20 -15 21 -10 5 4
-16 0 -21 -15 -22 -11 -1 -20 3 -20 8 0 6 4 8 9 5 5 -4 13 8 16 26 8 33 16 27
29 -22z m-664 -72 c-25 -23 -44 -46 -42 -51 2 -5 -4 -7 -12 -4 -8 3 -20 -2
-28 -10 -11 -15 -11 -16 5 -10 9 3 17 2 17 -2 0 -10 -28 -24 -50 -26 -9 0 -14
-8 -12 -20 3 -18 3 -19 -10 -3 -12 16 -15 15 -41 -7 -15 -14 -22 -25 -15 -25
9 0 9 -3 -2 -10 -8 -5 -10 -10 -5 -10 12 0 -16 -20 -29 -20 -5 0 -2 8 5 18 13
16 12 16 -4 3 -11 -8 -16 -22 -14 -33 4 -13 0 -18 -11 -16 -12 2 -17 -4 -16
-19 1 -20 -3 -23 -39 -21 l-40 1 24 20 c13 10 53 44 88 75 35 31 84 73 110 92
25 19 70 54 99 78 69 54 80 54 22 0z m37 -2 c0 -8 -9 -17 -18 -19 -16 -4 -17
-2 -8 14 12 22 26 25 26 5z m660 -53 c-2 -12 -1 -20 3 -18 5 3 15 -25 23 -63
19 -79 29 -143 21 -123 -5 11 -8 11 -15 0 -5 -8 -6 2 -2 25 4 28 3 37 -5 32
-7 -4 -12 -2 -12 3 0 6 4 11 9 11 4 0 6 11 3 25 -2 14 -8 25 -13 25 -5 0 -6
-8 -3 -17 3 -10 -1 -7 -9 6 -9 15 -15 53 -15 95 -1 57 1 66 9 46 6 -14 8 -35
6 -47z m-846 -87 c-9 -11 -7 -15 10 -19 14 -4 18 -10 13 -18 -6 -10 -9 -10
-12 -1 -3 10 -7 10 -18 1 -12 -9 -14 -8 -11 7 3 21 15 44 24 44 3 0 0 -6 -6
-14z m843 -31 c3 -8 1 -15 -4 -15 -6 0 -10 7 -10 15 0 8 2 15 4 15 2 0 6 -7
10 -15z m-904 -85 c-20 -13 -33 -13 -25 0 3 6 14 10 23 10 15 0 15 -2 2 -10z
m-155 -50 c-1 -11 -7 -26 -15 -33 -10 -9 -11 -9 -6 1 4 6 2 12 -3 12 -6 0 -11
-4 -11 -10 0 -5 -5 -10 -12 -10 -6 0 1 14 17 30 16 17 29 30 30 30 1 0 1 -9 0
-20z m595 10 c5 8 10 11 10 5 -1 -10 -24 -45 -31 -45 -2 0 -5 12 -6 27 -1 19
1 22 8 12 8 -12 10 -12 19 1z m530 -16 c0 -8 -4 -12 -10 -9 -5 3 -10 10 -10
16 0 5 5 9 10 9 6 0 10 -7 10 -16z m31 -224 c8 -62 14 -191 13 -315 -1 -173
-4 -229 -22 -315 -16 -77 -20 -89 -16 -45 9 87 9 166 1 200 -7 27 -6 27 8 -5
l15 -35 -4 55 c-2 30 -9 92 -16 136 -8 57 -9 95 -2 125 10 41 10 39 6 -26 l-3
-70 10 50 c7 35 7 90 -1 185 -7 74 -14 162 -16 195 -3 57 -3 58 5 15 5 -25 15
-92 22 -150z m-1243 123 c-6 -7 -16 -13 -22 -14 -6 0 -22 -14 -36 -32 -14 -17
-20 -28 -13 -24 6 4 15 2 18 -4 5 -7 -1 -9 -16 -7 -16 2 -23 -2 -21 -10 1 -8
-2 -11 -8 -7 -5 3 -10 4 -10 1 0 -2 -3 -13 -6 -23 -5 -15 -4 -15 5 -3 5 8 13
11 17 8 3 -4 -1 -14 -10 -23 -9 -9 -16 -21 -16 -26 0 -6 -9 -7 -21 -4 -16 5
-19 4 -14 -5 6 -9 4 -11 -5 -5 -10 6 -11 4 -5 -11 18 -42 12 -58 -22 -60 -18
0 -33 1 -33 3 0 7 60 93 99 143 53 68 85 99 99 100 7 0 10 5 7 10 -3 6 -3 15
1 21 4 8 9 7 15 -2 4 -8 3 -19 -3 -26z m642 -20 c0 -1 -25 -39 -56 -85 -31
-46 -66 -103 -79 -128 -13 -25 -39 -72 -59 -104 -32 -53 -35 -56 -33 -28 1 16
6 28 11 24 5 -3 6 3 3 12 -6 14 -3 17 9 12 12 -5 15 -2 10 10 -3 8 -6 23 -6
32 -1 12 -5 10 -14 -8 l-14 -25 1 26 c2 20 7 25 29 24 21 0 24 -3 17 -17 -17
-31 -9 -33 11 -3 11 17 20 38 20 48 0 9 4 17 9 17 17 0 22 34 6 42 -8 5 -15
14 -15 19 0 6 8 3 17 -6 15 -16 18 -15 35 7 10 12 16 31 14 40 -2 10 1 16 8
15 7 -1 11 13 10 38 0 39 1 41 33 41 18 0 33 -1 33 -3z m-660 -33 c0 -5 -4
-10 -10 -10 -5 0 -10 5 -10 10 0 6 5 10 10 10 6 0 10 -4 10 -10z m-53 -83 c-1
-22 -7 -34 -18 -34 -14 -1 -14 1 0 32 9 19 17 34 18 35 2 0 2 -15 0 -33z m604
-4 c-12 -20 -14 -14 -5 12 4 9 9 14 11 11 3 -2 0 -13 -6 -23z m686 -15 c-3 -7
-5 -2 -5 12 0 14 2 19 5 13 2 -7 2 -19 0 -25z m-1450 -170 c0 -33 -2 -46 -7
-33 -4 11 -5 27 -2 35 3 8 2 12 -3 8 -4 -4 -9 -27 -11 -50 -2 -26 0 -38 5 -30
7 11 9 11 14 0 3 -10 -5 -15 -29 -16 -19 -2 -34 1 -34 4 0 8 60 134 64 134 1
0 2 -24 3 -52z m860 7 c12 -9 10 -11 -7 -12 -11 -1 -18 2 -15 8 10 14 -5 11
-22 -6 -8 -9 -15 -31 -16 -50 -1 -23 -4 -31 -10 -22 -5 7 -6 3 -2 -13 10 -40
14 -90 6 -90 -4 0 -6 -15 -5 -32 1 -18 -1 -23 -3 -10 -2 12 -9 20 -14 16 -6
-3 -8 5 -5 20 2 13 0 26 -6 28 -7 3 -4 14 7 31 9 15 13 27 7 27 -5 0 -13 -10
-17 -22 -11 -33 -13 -40 -14 -72 -1 -19 -5 -27 -14 -23 -11 4 -14 -8 -13 -51
1 -46 -2 -57 -17 -60 -15 -3 -16 0 -7 24 6 15 8 29 6 32 -6 6 -21 -49 -18 -65
2 -7 -1 -13 -6 -13 -14 0 -22 26 -12 36 5 5 22 45 39 89 37 100 54 135 64 135
5 0 5 5 2 10 -3 6 -2 10 4 10 6 0 7 7 4 17 -5 12 -3 14 7 8 10 -6 12 -4 7 8
-3 9 0 29 8 44 8 15 15 24 15 19 0 -6 6 -4 12 2 10 10 14 10 17 0 2 -7 11 -18
18 -23z m-272 -115 c7 0 16 -6 19 -12 3 -7 3 -3 0 10 -3 12 -1 22 4 22 19 0
21 -14 5 -41 -17 -29 -33 -38 -33 -19 0 6 5 10 11 10 5 0 7 5 3 12 -5 8 -11 6
-19 -5 -10 -14 -12 -11 -12 16 0 18 2 26 5 20 2 -7 10 -13 17 -13z m-668 -60
c1 -33 -3 -62 -8 -65 -5 -4 -9 -23 -10 -43 -1 -34 -16 -99 -18 -77 -1 16 17
128 24 150 5 15 2 13 -10 -5 -12 -18 -14 -19 -9 -5 3 11 8 27 9 35 3 19 17 70
19 70 1 0 2 -27 3 -60z m667 2 c2 -4 -1 -18 -8 -31 -13 -23 -13 -23 -14 8 -1
29 11 41 22 23z m-80 -104 c15 -10 26 -10 26 1 0 5 -8 12 -17 14 -10 3 -6 4 8
4 l26 -1 -31 -62 c-17 -35 -34 -60 -38 -58 -12 7 -10 42 3 49 6 4 8 13 5 21
-3 8 -1 14 3 14 5 0 12 -6 14 -12 4 -8 6 -9 6 -2 1 6 -6 17 -14 24 -8 7 -14
22 -14 34 1 20 2 20 6 1 3 -11 10 -23 17 -27z m-629 -35 c-4 -38 -10 -72 -15
-76 -4 -5 -5 -27 -3 -50 3 -23 0 -53 -6 -67 -9 -20 -10 -6 -7 65 5 81 25 195
35 195 2 0 0 -30 -4 -67z m42 25 c-3 -8 -6 -5 -6 6 -1 11 2 17 5 13 3 -3 4
-12 1 -19z m-10 -70 c-3 -8 -6 -5 -6 6 -1 11 2 17 5 13 3 -3 4 -12 1 -19z
m753 -23 c0 -9 -7 -18 -15 -21 -8 -4 -15 -10 -15 -16 0 -5 5 -6 10 -3 6 3 10
-4 10 -16 0 -19 -2 -20 -17 -8 -15 13 -15 12 -5 -8 17 -30 14 -42 -3 -19 -17
23 -20 14 -5 -14 7 -13 7 -21 0 -25 -5 -3 -10 -19 -10 -36 0 -16 -5 -29 -11
-29 -6 0 -8 8 -5 18 2 9 8 28 11 42 11 37 -3 19 -19 -26 -8 -21 -15 -31 -15
-22 -1 10 12 50 27 90 16 40 32 81 35 91 8 21 27 23 27 2z m-190 -10 c0 -8 -4
-15 -10 -15 -5 0 -10 7 -10 15 0 8 5 15 10 15 6 0 10 -7 10 -15z m-31 -87
c-38 -76 -37 -75 -35 -45 0 14 4 23 9 20 4 -2 8 2 8 9 1 7 3 20 4 28 1 8 3 22
4 30 1 13 2 13 11 0 8 -13 10 -12 10 3 0 9 5 17 10 17 6 0 -4 -28 -21 -62z
m-32 5 c-3 -10 -5 -4 -5 12 0 17 2 24 5 18 2 -7 2 -21 0 -30z m224 -79 c-5
-16 -10 -21 -10 -12 -1 18 10 51 15 45 2 -1 -1 -16 -5 -33z m783 -92 c-9 -37
-30 -93 -45 -124 -15 -32 -26 -58 -23 -58 3 0 0 -9 -6 -20 -11 -20 -30 -19
-30 1 0 6 4 7 10 4 6 -3 7 1 4 9 -4 9 -1 16 6 16 8 0 10 12 5 40 -5 32 -4 40
8 40 9 0 18 -6 20 -12 3 -7 4 9 2 36 -4 44 -3 47 11 30 14 -18 15 -18 9 6 -4
17 -3 21 3 11 10 -14 26 60 24 114 l-1 30 10 -28 c9 -22 7 -43 -7 -95z m-1537
-159 c12 -60 20 -83 31 -83 9 0 12 -3 9 -7 -4 -3 -1 -13 6 -21 9 -13 9 -14 0
-8 -8 4 -13 1 -13 -8 0 -13 3 -14 19 -4 11 7 17 16 15 20 -3 4 -1 8 4 8 16 0
22 -29 15 -72 l-6 -41 -17 33 c-11 21 -20 29 -24 21 -4 -6 -2 -11 4 -11 6 0 8
-5 4 -11 -3 -6 -1 -15 6 -19 6 -4 13 -19 13 -33 1 -14 6 -25 10 -24 5 1 19
-11 30 -27 16 -21 18 -30 10 -33 -7 -3 -13 -9 -13 -14 0 -4 7 -6 15 -3 8 4 15
1 15 -6 0 -6 -4 -8 -10 -5 -17 11 -11 -4 11 -26 11 -11 18 -27 15 -34 -3 -8
-1 -17 4 -20 5 -3 7 17 5 47 -4 53 -4 53 9 18 6 -19 17 -34 24 -32 7 1 12 -7
12 -17 0 -11 5 -23 11 -27 6 -3 9 -19 7 -35 -4 -25 -2 -27 15 -17 29 15 41 -3
28 -47 -5 -20 -7 -43 -4 -51 10 -28 -4 -13 -36 36 -18 27 -29 55 -25 61 4 8 3
9 -4 5 -7 -4 -12 -5 -12 -2 0 2 -3 13 -6 23 -5 14 -4 15 4 4 8 -11 10 -8 9 12
-2 23 -4 24 -18 11 -14 -13 -21 -5 -63 76 -26 50 -49 98 -51 108 -3 9 -15 49
-29 87 -47 136 -66 234 -65 328 l2 72 9 -75 c5 -41 16 -112 25 -157z m478 146
c-34 -72 -34 -73 -32 -34 1 26 6 39 15 38 6 -2 12 1 12 6 0 5 3 16 6 25 4 11
0 16 -12 16 -16 0 -16 2 -4 9 8 6 17 8 21 5 4 -2 11 1 14 7 4 5 9 8 11 6 2 -2
-11 -37 -31 -78z m1045 59 c0 -13 -5 -30 -11 -38 -8 -11 -9 -8 -4 14 4 19 2
32 -7 37 -10 7 -9 9 5 9 11 0 17 -8 17 -22z m-833 -10 c-10 -5 -14 -20 -12
-46 1 -20 -1 -47 -6 -59 -5 -13 -4 -25 1 -28 6 -4 10 -11 10 -18 0 -6 -6 -2
-14 9 -8 10 -18 15 -22 11 -5 -4 -4 -11 2 -15 6 -4 16 -18 23 -32 11 -23 11
-23 -3 -7 -14 18 -15 18 -25 -1 -6 -11 -7 -22 -4 -26 3 -3 1 -6 -5 -6 -7 0
-12 9 -12 21 0 12 -4 17 -11 13 -6 -3 -3 8 5 25 9 17 15 32 14 33 -2 2 8 35
21 74 18 52 29 70 39 66 12 -4 12 -6 -1 -14z m-680 -150 c-3 -8 -6 -5 -6 6 -1
11 2 17 5 13 3 -3 4 -12 1 -19z m364 -5 c-12 -20 -14 -14 -5 12 4 9 9 14 11
11 3 -2 0 -13 -6 -23z m49 12 c0 -12 -19 -12 -23 0 -4 9 -1 12 9 8 7 -3 14 -7
14 -8z m316 -29 c29 -8 32 -32 3 -41 -26 -9 -27 -7 -32 40 -3 22 -3 33 0 23 2
-9 15 -19 29 -22z m-311 -8 c-3 -8 -12 -15 -20 -15 -13 0 -12 4 2 19 18 20 26
19 18 -4z m-48 -34 c-2 -14 1 -25 10 -28 8 -3 11 -10 8 -16 -4 -6 -11 -8 -16
-5 -5 4 -9 2 -9 -4 0 -5 4 -11 9 -13 4 -1 2 -19 -5 -38 -12 -33 -13 -30 -11
52 1 47 6 84 10 81 5 -3 7 -16 4 -29z m-348 -1 c0 -25 -1 -25 -8 -8 -5 11 -7
23 -4 28 8 14 13 7 12 -20z m381 -9 c0 -8 -4 -12 -10 -9 -5 3 -10 10 -10 16 0
5 5 9 10 9 6 0 10 -7 10 -16z m1008 -86 c-58 -104 -100 -161 -108 -148 -5 8
-9 7 -13 -4 -4 -9 -1 -16 6 -16 19 0 -162 -178 -223 -219 -79 -53 -84 -56 -76
-43 3 6 -1 17 -10 26 -8 9 -12 20 -9 26 10 16 25 11 18 -6 -5 -13 1 -12 34 5
22 11 43 18 46 14 9 -8 2 41 -8 56 -5 10 -4 12 3 7 7 -4 12 0 13 11 1 17 1 17
6 0 3 -10 10 -16 16 -14 7 2 20 0 29 -4 10 -5 19 -5 22 0 3 5 -4 11 -15 14
-30 8 -21 43 10 39 18 -3 22 0 18 12 -4 10 -1 13 9 9 7 -3 14 0 14 6 0 6 9 11
20 11 21 0 21 0 24 45 0 19 6 30 16 30 26 1 60 16 61 28 1 7 1 19 0 27 0 10 1
11 5 3 3 -7 10 -13 16 -13 6 0 2 12 -8 28 -14 21 -14 24 -2 14 14 -11 20 -9
37 9 12 13 21 33 21 45 0 13 8 28 18 33 10 7 13 14 7 18 -5 5 -11 19 -13 33
-2 23 -1 23 18 -8 l20 -33 -22 -41z m-822 57 c0 -21 -3 -30 -8 -22 -6 9 -8 9
-8 0 0 -6 5 -15 10 -18 6 -3 10 -11 10 -16 0 -6 -5 -7 -11 -3 -6 3 -10 -1 -9
-12 1 -11 1 -30 0 -44 l-2 -25 -8 25 c-7 23 -8 23 -9 4 -1 -26 -30 -96 -31
-75 0 8 4 28 10 45 5 17 19 64 30 104 12 39 22 72 23 72 2 0 3 -16 3 -35z
m760 -102 c-10 -10 -19 5 -10 18 6 11 8 11 12 0 2 -7 1 -15 -2 -18z m-1236
-51 c0 -7 -4 -10 -10 -7 -5 3 -10 16 -10 28 0 18 2 19 10 7 5 -8 10 -21 10
-28z m182 11 c-3 -16 -7 -22 -10 -15 -4 13 4 42 11 42 2 0 2 -12 -1 -27z m36
-35 c-11 -35 -27 -93 -36 -130 -10 -40 -22 -68 -29 -68 -16 0 -17 17 -2 22 6
2 11 20 12 40 0 21 5 34 11 31 5 -4 6 -1 0 8 -5 8 -9 34 -10 59 0 25 2 36 4
25 l5 -20 9 20 c7 17 8 16 3 -5 -14 -69 -13 -70 8 -10 22 63 34 90 42 90 2 0
-6 -28 -17 -62z m-21 20 c-3 -8 -6 -5 -6 6 -1 11 2 17 5 13 3 -3 4 -12 1 -19z
m278 -18 c-4 -12 -9 -19 -12 -17 -3 3 -2 15 2 27 4 12 9 19 12 17 3 -3 2 -15
-2 -27z m-34 -7 c-12 -20 -14 -14 -5 12 4 9 9 14 11 11 3 -2 0 -13 -6 -23z
m-465 -10 c-10 -10 -19 5 -10 18 6 11 8 11 12 0 2 -7 1 -15 -2 -18z m104 -118
c0 -5 -5 -3 -10 5 -5 8 -10 20 -10 25 0 6 5 3 10 -5 5 -8 10 -19 10 -25z m918
12 c3 -16 1 -17 -17 -5 -25 16 -27 31 -4 26 10 -2 19 -11 21 -21z m-221 -147
c4 -12 3 -13 -5 -1 -6 8 -20 12 -36 9 -14 -3 -23 -1 -20 4 9 14 57 5 61 -12z
m-112 -20 c3 -6 -1 -7 -9 -4 -9 3 -16 1 -16 -5 0 -6 4 -11 9 -11 5 0 11 -7 14
-14 4 -10 1 -13 -9 -9 -16 6 -20 -13 -4 -20 6 -3 5 -4 -2 -3 -14 3 -23 40 -14
62 6 16 22 18 31 4z m92 4 c-3 -3 -12 -4 -19 -1 -8 3 -5 6 6 6 11 1 17 -2 13
-5z m-357 -124 c0 -5 -5 -10 -11 -10 -5 0 -7 5 -4 10 3 6 8 10 11 10 2 0 4 -4
4 -10z"/>
<path d="M7966 7147 c-16 -12 -16 -13 2 -14 10 -1 19 5 19 13 0 17 1 17 -21 1z"/>
<path d="M7800 7021 c0 -6 4 -13 10 -16 6 -3 7 1 4 9 -7 18 -14 21 -14 7z"/>
<path d="M7755 6980 c-3 -5 -1 -10 4 -10 6 0 11 5 11 10 0 6 -2 10 -4 10 -3 0
-8 -4 -11 -10z"/>
<path d="M7450 6739 c0 -5 5 -7 10 -4 6 3 10 8 10 11 0 2 -4 4 -10 4 -5 0 -10
-5 -10 -11z"/>
<path d="M7260 6585 c-11 -13 -10 -14 4 -9 9 3 16 10 16 15 0 13 -6 11 -20 -6z"/>
<path d="M8255 6720 c-3 -5 -1 -10 4 -10 6 0 11 5 11 10 0 6 -2 10 -4 10 -3 0
-8 -4 -11 -10z"/>
<path d="M8346 5998 c-5 -31 -6 -63 -3 -70 6 -18 20 73 15 103 -3 15 -7 3 -12
-33z"/>
<path d="M6977 6273 c-4 -3 -7 -11 -7 -17 0 -6 5 -5 12 2 6 6 9 14 7 17 -3 3
-9 2 -12 -2z"/>
<path d="M6922 6200 c-16 -26 -15 -35 2 -21 11 9 15 9 19 -1 4 -9 6 -9 6 2 1
29 -14 40 -27 20z"/>
<path d="M7708 6372 c3 -10 1 -13 -6 -8 -7 4 -12 3 -12 -2 0 -19 14 -21 26 -4
17 22 17 29 0 29 -8 0 -12 -6 -8 -15z"/>
<path d="M6825 6020 c-3 -5 -1 -10 4 -10 6 0 11 5 11 10 0 6 -2 10 -4 10 -3 0
-8 -4 -11 -10z"/>
<path d="M7656 5953 c-6 -14 -5 -15 5 -6 7 7 10 15 7 18 -3 3 -9 -2 -12 -12z"/>
<path d="M6841 5003 c7 -12 15 -20 18 -17 3 2 -3 12 -13 22 -17 16 -18 16 -5
-5z"/>
<path d="M6980 4765 c7 -9 15 -13 17 -11 7 7 -7 26 -19 26 -6 0 -6 -6 2 -15z"/>
<path d="M7211 5424 c0 -11 3 -14 6 -6 3 7 2 16 -1 19 -3 4 -6 -2 -5 -13z"/>
<path d="M7412 5400 c-6 -10 -8 -21 -3 -24 5 -3 11 4 14 16 8 29 4 32 -11 8z"/>
<path d="M7386 5331 c-4 -7 -5 -15 -2 -18 9 -9 19 4 14 18 -4 11 -6 11 -12 0z"/>
<path d="M8165 5189 c-4 -6 -5 -12 -2 -15 2 -3 7 2 10 11 7 17 1 20 -8 4z"/>
<path d="M8015 5005 c1 -11 -3 -29 -8 -40 -9 -20 -9 -20 12 0 28 28 35 61 11
61 -11 0 -16 -7 -15 -21z"/>
<path d="M7950 4920 c-19 -17 -29 -30 -24 -30 12 1 68 50 62 55 -3 3 -20 -9
-38 -25z"/>
<path d="M7855 4846 c1 -11 8 -22 15 -24 9 -3 11 1 7 11 -4 11 -2 14 7 11 8
-3 17 -1 21 5 3 6 3 11 -2 12 -4 0 -17 2 -29 3 -15 2 -20 -3 -19 -18z"/>
<path d="M7793 4788 c-13 -6 -23 -15 -23 -20 0 -7 31 8 59 29 10 7 -16 1 -36
-9z"/>
<path d="M8066 7222 c-2 -4 4 -9 15 -9 11 -1 17 2 14 8 -7 11 -22 12 -29 1z"/>
<path d="M4386 5948 c17 -18 137 -153 266 -299 l236 -267 48 57 c27 31 139
157 249 281 110 124 206 233 214 243 13 16 -14 17 -515 17 l-528 0 30 -32z"/>
<path d="M5248 5558 l-256 -292 21 -27 c12 -15 119 -136 237 -268 156 -174
221 -240 238 -240 l22 -1 0 560 c0 308 -1 560 -2 560 -2 -1 -119 -132 -260
-292z"/>
<path d="M4270 5283 c0 -545 1 -561 19 -556 10 3 41 30 67 61 60 70 357 406
396 448 l28 30 -246 280 c-135 153 -250 283 -255 289 -5 5 -9 -213 -9 -552z"/>
<path d="M6378 5533 c-10 -2 -18 -11 -18 -18 0 -8 -9 -20 -20 -28 -18 -13 -19
-15 -5 -21 9 -3 26 -1 38 6 20 10 21 10 8 -5 -7 -10 -20 -17 -27 -17 -10 0
-14 -13 -14 -45 0 -25 -4 -45 -10 -45 -6 0 -10 -87 -10 -240 0 -153 4 -240 10
-240 6 0 10 -23 10 -51 0 -31 -4 -48 -10 -44 -5 3 -10 -1 -10 -9 0 -9 5 -16
10 -16 6 0 10 -5 10 -11 0 -5 -4 -7 -10 -4 -5 3 -10 -1 -10 -9 0 -14 23 -16
173 -16 94 0 209 -3 255 -7 l83 -6 -52 84 c-124 198 -181 379 -205 647 -6 72
-7 74 -40 88 -31 13 -118 17 -156 7z m169 -26 c16 -16 16 -17 1 -17 -9 0 -23
6 -30 13 -7 8 -19 12 -26 9 -18 -6 -14 -33 8 -52 20 -17 18 -18 -42 -16 -48 1
-62 4 -60 15 1 7 -5 25 -14 39 -15 23 -15 25 0 19 9 -4 16 -1 16 4 0 19 127 6
147 -14z m-182 -26 c-3 -6 -11 -11 -17 -11 -6 0 -6 6 2 15 14 17 26 13 15 -4z
m170 -3 c14 -6 25 -18 24 -27 0 -10 -2 -12 -6 -3 -2 6 -13 12 -23 12 -9 0 -23
7 -30 15 -15 18 -1 20 35 3z m78 -349 c17 -61 21 -86 12 -86 -7 0 -10 9 -8 21
4 18 2 18 -12 -4 l-16 -25 6 25 c11 45 10 55 -5 52 -12 -3 -13 -1 -2 9 6 7 12
17 12 22 0 5 -7 1 -16 -8 -23 -23 -27 -14 -10 26 9 21 11 41 6 49 -6 10 -10 5
-13 -16 -3 -16 -4 -3 -3 28 1 32 -1 59 -6 60 -4 2 -5 26 -1 53 l7 50 12 -85
c7 -47 24 -124 37 -171z m-276 34 c-2 -21 -4 -4 -4 37 0 41 2 58 4 38 2 -21 2
-55 0 -75z m235 -115 c-6 -6 -7 0 -4 19 5 21 7 23 10 9 2 -10 0 -22 -6 -28z
m106 -101 c17 -37 27 -65 22 -62 -5 3 -11 1 -15 -5 -3 -5 0 -10 8 -10 17 0 61
-54 71 -87 4 -13 14 -30 22 -38 14 -13 13 -15 -10 -15 -14 0 -26 5 -26 11 0 5
5 7 10 4 6 -3 10 -1 10 4 0 6 -9 11 -20 11 -13 0 -18 -5 -14 -15 5 -12 -3 -15
-42 -14 l-49 1 40 13 c37 13 31 13 -85 12 -92 -1 -103 -2 -42 -4 106 -5 108
-23 2 -23 -52 0 -80 4 -80 11 0 8 -20 10 -60 7 -33 -2 -60 -1 -60 3 0 8 193
21 296 20 41 0 74 3 74 7 0 5 -15 7 -32 5 l-33 -3 28 11 c29 12 36 36 12 45
-8 4 -12 10 -9 15 3 5 -1 7 -8 4 -7 -3 -19 4 -26 15 -11 18 -11 21 4 18 9 -2
19 4 22 12 3 8 1 12 -3 8 -10 -9 -45 9 -45 24 0 6 9 3 20 -7 24 -21 25 -17 6
20 -9 17 -16 22 -19 13 -3 -7 -6 5 -6 26 -1 47 -2 48 37 -37z m-278 -157 c0
-5 -9 -10 -20 -10 -11 0 -20 5 -20 10 0 6 9 10 20 10 11 0 20 -4 20 -10z m159
-6 c2 -2 -21 -4 -52 -4 -31 0 -59 5 -62 10 -6 10 103 3 114 -6z"/>
<path d="M8325 5137 c-86 -156 -146 -239 -245 -337 -147 -146 -326 -258 -605
-375 -49 -21 -94 -43 -100 -48 -16 -16 21 -3 134 47 57 25 109 46 116 46 8 0
12 -12 10 -32 l-3 -33 -52 3 c-48 3 -51 1 -36 -13 10 -11 13 -25 9 -45 l-5
-30 66 0 66 0 0 -39 c0 -43 10 -51 65 -51 19 0 37 -4 40 -10 3 -5 23 -11 43
-11 45 -2 33 -5 -83 -23 -336 -54 -536 -93 -550 -108 -7 -7 -4 -8 10 -4 39 11
342 65 510 91 50 7 131 20 180 29 78 13 444 66 460 66 3 0 5 -188 5 -419 l0
-419 -22 -5 c-72 -17 -508 -219 -711 -329 -62 -34 -115 -57 -125 -54 -9 3 -24
1 -32 -5 -12 -8 -9 -9 10 -4 24 6 24 6 5 -10 -11 -8 -25 -13 -33 -10 -7 2 -10
0 -7 -5 3 -6 -2 -13 -12 -17 -10 -4 -36 -18 -58 -32 -72 -45 -266 -151 -275
-151 -6 0 -10 -5 -10 -11 0 -5 -5 -7 -11 -3 -7 4 -20 7 -29 8 -10 1 -42 23
-70 50 -38 36 -48 51 -38 57 7 5 13 19 13 31 1 17 -5 23 -23 25 -23 1 -23 1
-3 -14 12 -8 21 -19 21 -25 0 -6 -9 -3 -19 6 -15 13 -20 14 -23 4 -4 -11 -8
-10 -21 1 -9 7 -14 18 -10 24 4 6 1 7 -6 2 -14 -8 -83 53 -75 67 3 4 11 5 17
1 7 -4 6 0 -2 10 -13 17 -36 14 -26 -4 13 -19 -12 -7 -48 26 -33 29 -36 35
-22 43 16 8 16 10 -1 16 -9 4 -21 2 -24 -5 -5 -8 -13 -7 -29 2 -24 15 -23 13
-25 53 -1 24 -6 29 -29 32 l-28 3 26 -21 c43 -34 20 -31 -29 3 -30 22 -42 35
-34 40 17 11 18 59 1 59 -7 0 -13 -5 -13 -11 0 -5 -5 -7 -12 -3 -7 4 -8 3 -4
-4 4 -6 12 -9 20 -6 7 3 13 -2 13 -11 0 -9 -6 -14 -14 -11 -8 3 -11 1 -8 -4 3
-6 2 -10 -3 -10 -11 0 -30 21 -32 35 -1 6 -7 9 -15 7 -27 -5 -25 18 2 24 15 4
57 20 93 37 98 44 139 57 145 46 4 -5 14 -8 23 -8 15 1 15 2 0 6 -10 2 -18 9
-18 15 0 5 7 7 16 4 8 -3 13 -2 10 3 -3 5 9 14 27 21 17 7 60 25 94 41 34 16
74 31 90 35 15 4 39 12 53 19 60 31 129 52 152 48 14 -3 28 0 32 5 4 6 -2 8
-14 5 -11 -3 -20 -3 -20 0 0 10 106 39 159 42 31 2 72 11 91 19 45 20 27 20
-36 1 -77 -23 -77 -16 0 11 39 13 80 24 93 24 13 0 23 4 23 10 0 16 79 33 95
20 10 -8 15 -8 20 0 5 7 21 10 44 6 l36 -5 -33 12 -34 13 94 26 c66 19 105 26
135 21 32 -4 46 -1 59 11 9 10 23 15 31 12 8 -3 21 -6 29 -6 9 0 12 -4 9 -10
-10 -16 15 -12 32 6 14 13 14 17 2 25 -8 5 -18 9 -24 9 -5 0 -3 -5 5 -10 11
-7 8 -10 -15 -10 -29 1 -29 1 -11 15 11 8 33 15 48 15 16 0 36 4 46 9 9 5 60
19 112 31 52 12 107 25 121 29 33 10 46 3 52 -29 3 -16 5 -10 6 18 0 23 0 42
-2 42 -11 0 -609 -153 -682 -174 -250 -74 -671 -224 -870 -309 -276 -118 -351
-151 -358 -157 -5 -4 25 -31 65 -61 440 -323 880 -763 1161 -1162 54 -76 40
-76 157 -4 121 74 250 193 343 319 41 56 125 224 148 298 55 177 52 103 58
1375 3 649 6 1181 6 1182 0 0 -22 -40 -50 -90z m41 11 c-3 -18 -6 -177 -7
-353 -1 -176 -5 -304 -8 -284 -5 29 -10 35 -26 33 -11 -2 -145 -5 -297 -6
-275 -3 -277 -3 -274 -24 4 -18 0 -20 -27 -19 -18 2 -36 0 -42 -3 -5 -4 -19
-7 -30 -9 -11 -1 -4 5 15 14 19 8 49 25 65 37 28 20 79 46 91 46 3 0 2 -5 -2
-12 -4 -7 -3 -8 5 -4 6 4 9 11 6 15 -2 5 38 37 90 71 52 35 95 67 95 72 0 5 6
8 13 5 15 -6 47 10 47 24 0 6 -7 3 -16 -5 -8 -9 -18 -16 -22 -16 -4 0 9 16 30
35 20 19 45 45 55 58 10 13 29 29 42 36 12 7 20 15 18 18 -3 3 18 39 46 81 28
43 63 100 77 127 27 52 53 95 57 95 2 0 1 -15 -1 -32z m-186 -882 c0 -3 -4 -8
-10 -11 -5 -3 -10 -1 -10 4 0 6 5 11 10 11 6 0 10 -2 10 -4z m87 -2 c-3 -3
-12 -4 -19 -1 -8 3 -5 6 6 6 11 1 17 -2 13 -5z m-450 -30 c-3 -3 -12 -4 -19
-1 -8 3 -5 6 6 6 11 1 17 -2 13 -5z m203 -4 c-14 -4 -36 -8 -50 -8 -22 0 -22
1 5 8 17 4 39 8 50 8 16 0 15 -2 -5 -8z m-125 -445 c-16 -8 -39 -14 -50 -14
-11 1 -2 7 20 14 52 17 68 17 30 0z m-288 -81 c-3 -3 -12 -4 -19 -1 -8 3 -5 6
6 6 11 1 17 -2 13 -5z m-677 -794 c0 -5 -4 -10 -10 -10 -5 0 -10 5 -10 10 0 6
5 10 10 10 6 0 10 -4 10 -10z"/>
<path d="M8302 5044 c-9 -18 -9 -23 -1 -18 7 4 10 1 7 -7 -3 -8 -11 -13 -17
-11 -9 2 -9 -3 -1 -18 13 -23 25 -27 16 -5 -3 9 1 18 9 21 8 4 15 13 15 21 0
8 -5 11 -11 7 -8 -4 -9 0 -4 15 9 29 1 26 -13 -5z"/>
<path d="M8254 4978 c-4 -7 -3 -8 4 -4 15 9 15 1 1 -46 -6 -23 -16 -38 -26
-38 -14 0 -13 3 2 26 26 40 13 38 -20 -3 -16 -21 -22 -34 -13 -31 8 4 21 2 29
-3 11 -7 11 -9 1 -9 -8 0 -27 -9 -43 -21 -16 -11 -29 -17 -29 -12 0 4 -11 -5
-25 -21 -25 -29 -31 -46 -17 -46 4 0 13 12 19 28 10 22 19 27 48 28 19 0 35
-3 35 -8 0 -4 -9 -8 -19 -8 -30 0 -51 -11 -51 -26 0 -21 -61 -73 -79 -66 -14
5 -14 4 1 -11 21 -22 88 -23 88 -2 0 12 15 15 79 15 l80 0 4 33 4 32 1 -32 c1
-18 5 -33 10 -33 4 0 6 42 5 92 -1 60 -5 92 -12 91 -6 -2 -11 9 -11 23 0 15
-10 34 -22 45 -27 22 -34 23 -44 7z m73 -120 c-3 -8 -6 -5 -6 6 -1 11 2 17 5
13 3 -3 4 -12 1 -19z m-170 -123 c-4 -8 -11 -15 -17 -15 -7 0 -7 6 0 21 13 23
26 19 17 -6z"/>
<path d="M7975 4669 c-19 -19 -19 -20 -1 -13 12 4 17 4 13 -2 -3 -5 6 -10 21
-11 26 -2 26 -1 5 7 -15 6 -21 15 -17 25 8 20 3 18 -21 -6z"/>
<path d="M8030 4680 c-12 -8 -12 -10 2 -15 19 -7 38 1 38 16 0 12 -21 11 -40
-1z"/>
<path d="M7897 4619 c-9 -6 -15 -14 -12 -20 6 -8 -9 -13 -29 -10 -5 1 -4 -5 3
-13 11 -14 50 -18 52 -6 2 9 6 60 5 60 -1 0 -9 -5 -19 -11z m3 -39 c-8 -5 -19
-10 -25 -10 -5 0 -3 5 5 10 8 5 20 10 25 10 6 0 3 -5 -5 -10z"/>
<path d="M8334 4606 c-3 -8 -1 -23 5 -33 9 -15 10 -13 11 15 0 34 -7 42 -16
18z"/>
<path d="M7880 4550 l-45 -7 40 -1 c22 -1 47 3 55 8 8 5 11 9 5 8 -5 0 -30 -4
-55 -8z"/>
<path d="M7720 4510 c-8 -5 -10 -10 -5 -10 6 0 17 5 25 10 8 5 11 10 5 10 -5
0 -17 -5 -25 -10z"/>
<path d="M2672 5147 c13 -19 25 -33 26 -32 7 6 -23 59 -36 63 -7 2 -2 -12 10
-31z"/>
<path d="M4740 4982 c-80 -89 -164 -184 -186 -210 l-41 -47 372 0 c273 0 371
3 367 11 -4 6 -47 56 -97 110 -166 182 -190 209 -230 254 l-40 45 -145 -163z"/>
<path d="M5298 4723 c12 -2 32 -2 45 0 12 2 2 4 -23 4 -25 0 -35 -2 -22 -4z"/>
<path d="M5538 4723 c12 -2 32 -2 45 0 12 2 2 4 -23 4 -25 0 -35 -2 -22 -4z"/>
<path d="M7700 4697 c-14 -7 -44 -12 -67 -11 -34 1 -44 -2 -48 -17 -4 -10 -4
-22 -2 -26 3 -5 -23 -23 -56 -42 -45 -24 -57 -28 -44 -13 18 19 18 20 -7 18
-14 0 -28 -7 -31 -14 -3 -7 0 -10 5 -7 6 3 10 -1 10 -9 0 -16 -3 -17 -52 -20
-33 -2 -50 -17 -39 -34 5 -9 43 6 142 56 140 71 229 121 229 128 0 7 -15 4
-40 -9z m-50 -27 c-39 -27 -50 -31 -48 -18 2 7 12 16 23 20 31 10 42 9 25 -2z
m-250 -130 c-8 -5 -19 -10 -25 -10 -5 0 -3 5 5 10 8 5 20 10 25 10 6 0 3 -5
-5 -10z"/>
<path d="M6836 4687 c3 -10 9 -15 12 -12 3 3 0 11 -7 18 -10 9 -11 8 -5 -6z"/>
<path d="M7504 4618 c12 -7 21 -7 28 0 6 6 0 10 -18 10 -23 0 -24 -2 -10 -10z"/>
<path d="M1968 4553 c6 -2 18 -2 25 0 6 3 1 5 -13 5 -14 0 -19 -2 -12 -5z"/>
<path d="M2028 4553 c12 -2 30 -2 40 0 9 3 -1 5 -23 4 -22 0 -30 -2 -17 -4z"/>
<path d="M2173 4543 c15 -2 37 -2 50 0 12 2 0 4 -28 4 -27 0 -38 -2 -22 -4z"/>
<path d="M2458 4523 c7 -3 16 -2 19 1 4 3 -2 6 -13 5 -11 0 -14 -3 -6 -6z"/>
<path d="M6750 4523 c-316 -20 -878 -76 -1185 -119 -289 -40 -662 -105 -930
-161 -93 -20 -185 -38 -204 -41 -29 -4 -19 -9 80 -39 252 -75 490 -156 588
-199 44 -19 52 -11 9 9 -121 57 -137 63 -173 66 -17 2 -16 4 8 17 37 20 35 28
-3 9 -27 -14 -34 -14 -73 0 -28 10 -33 14 -14 12 26 -4 27 -3 25 39 -1 46 -20
58 -46 32 -10 -10 -17 -10 -32 0 -24 15 -47 15 -56 1 -4 -8 1 -9 17 -4 21 7
22 6 10 -9 -8 -9 -11 -20 -7 -23 4 -4 11 -1 17 7 8 13 10 13 19 0 17 -27 -5
-30 -71 -10 -35 11 -95 30 -134 42 -38 12 -74 25 -80 29 -5 4 -19 9 -30 12
-14 3 -11 5 10 6 17 1 54 8 82 15 29 8 62 12 74 9 12 -4 25 0 30 8 6 10 33 14
101 14 83 0 111 8 91 25 -4 3 -3 0 0 -6 4 -8 -6 -11 -33 -10 -53 1 -28 13 56
26 38 6 128 22 199 35 119 23 221 39 515 81 58 8 116 12 128 9 17 -4 21 -2 16
6 -5 9 8 10 52 6 38 -4 50 -3 34 2 -23 8 -22 9 10 9 19 0 44 -3 55 -8 17 -7
16 -9 -9 -9 -16 -1 -27 -4 -23 -7 3 -4 23 -3 44 1 37 7 37 8 13 17 -29 12 -23
15 45 21 49 4 50 4 20 -10 -25 -11 -26 -13 -5 -8 150 37 181 39 260 20 21 -5
20 -4 -5 9 l-30 14 30 1 c17 1 107 8 200 15 94 8 226 18 295 21 69 4 147 9
175 10 30 2 53 -1 57 -8 4 -7 8 -42 8 -79 0 -76 9 -68 -104 -88 -73 -12 -85
-12 -66 0 8 5 10 10 5 10 -6 0 -19 -6 -30 -14 -11 -7 -42 -16 -70 -20 -27 -4
-66 -10 -85 -12 -19 -3 -43 -7 -53 -10 -10 -3 -16 -1 -15 6 2 7 -4 15 -12 17
-13 4 -13 3 0 -6 12 -8 10 -12 -12 -20 -46 -17 -125 -24 -132 -12 -4 6 -12 11
-19 11 -6 0 -3 -6 8 -13 17 -13 15 -14 -16 -20 -19 -3 -86 -16 -149 -28 -63
-11 -127 -22 -142 -24 -14 -2 -30 -5 -35 -8 -5 -3 -29 -8 -53 -12 -25 -3 -58
-10 -75 -15 -45 -13 -159 -35 -169 -32 -5 2 -26 -4 -46 -12 -20 -8 -66 -18
-101 -22 -35 -4 -66 -10 -69 -13 -3 -4 -32 -12 -65 -19 -33 -6 -73 -15 -88
-18 -20 -5 -27 -3 -25 7 2 7 -6 14 -17 16 l-20 3 20 -9 c19 -9 19 -10 -2 -10
-12 -1 -45 4 -73 10 -27 6 -56 9 -63 6 -6 -2 24 -10 68 -18 l80 -13 -63 -13
c-34 -7 -71 -17 -82 -23 -11 -6 -36 -11 -55 -12 -19 -1 -35 -5 -35 -10 0 -12
29 -10 84 7 60 18 711 158 1021 219 212 42 587 106 713 122 l52 7 0 81 c0 51
-5 87 -12 94 -12 12 -93 13 -228 5z"/>
<path d="M2558 4513 c7 -3 16 -2 19 1 4 3 -2 6 -13 5 -11 0 -14 -3 -6 -6z"/>
<path d="M6853 4493 c9 -2 23 -2 30 0 6 3 -1 5 -18 5 -16 0 -22 -2 -12 -5z"/>
<path d="M6683 4483 c26 -2 67 -2 90 0 23 2 2 3 -48 3 -49 0 -68 -1 -42 -3z"/>
<path d="M3008 4463 c6 -2 18 -2 25 0 6 3 1 5 -13 5 -14 0 -19 -2 -12 -5z"/>
<path d="M6298 4453 c7 -3 16 -2 19 1 4 3 -2 6 -13 5 -11 0 -14 -3 -6 -6z"/>
<path d="M6069 4430 c-20 -13 -5 -22 21 -12 18 7 20 10 8 14 -8 4 -21 2 -29
-2z"/>
<path d="M6283 4423 c9 -2 23 -2 30 0 6 3 -1 5 -18 5 -16 0 -22 -2 -12 -5z"/>
<path d="M3358 4413 c7 -3 16 -2 19 1 4 3 -2 6 -13 5 -11 0 -14 -3 -6 -6z"/>
<path d="M6133 4413 c9 -2 25 -2 35 0 9 3 1 5 -18 5 -19 0 -27 -2 -17 -5z"/>
<path d="M6018 4403 c6 -2 18 -2 25 0 6 3 1 5 -13 5 -14 0 -19 -2 -12 -5z"/>
<path d="M6218 4403 c7 -3 16 -2 19 1 4 3 -2 6 -13 5 -11 0 -14 -3 -6 -6z"/>
<path d="M1850 4265 c0 -142 -11 -129 110 -140 141 -13 488 -67 647 -100 462
-98 911 -238 1348 -422 161 -68 530 -258 680 -349 457 -280 853 -616 1171
-995 70 -83 205 -260 254 -332 l25 -37 588 0 c331 0 587 4 587 9 0 16 -165
256 -251 367 -353 451 -774 812 -1324 1133 -151 89 -429 232 -553 285 -42 19
-134 59 -204 89 -548 240 -1275 430 -2029 531 -323 44 -817 86 -1011 86 l-38
0 0 -125z"/>
<path d="M6770 4381 c0 -5 10 -11 23 -15 36 -9 42 -7 21 9 -21 16 -44 19 -44
6z"/>
<path d="M7492 4358 c2 -24 8 -32 28 -35 19 -3 22 -1 12 9 -6 6 -12 22 -12 35
0 14 -6 23 -16 23 -11 0 -14 -8 -12 -32z"/>
<path d="M5578 4373 c7 -3 16 -2 19 1 4 3 -2 6 -13 5 -11 0 -14 -3 -6 -6z"/>
<path d="M6858 4373 c7 -3 16 -2 19 1 4 3 -2 6 -13 5 -11 0 -14 -3 -6 -6z"/>
<path d="M7414 4365 c-10 -8 -14 -15 -8 -15 6 0 17 7 24 15 16 19 9 19 -16 0z"/>
<path d="M5520 4360 c0 -5 -10 -11 -22 -11 -14 -1 -17 -3 -7 -6 8 -2 28 3 45
12 26 13 27 15 7 15 -13 0 -23 -4 -23 -10z"/>
<path d="M6720 4350 c0 -5 4 -10 9 -10 6 0 13 5 16 10 3 6 -1 10 -9 10 -9 0
-16 -4 -16 -10z"/>
<path d="M7376 4345 c-9 -26 -7 -32 5 -12 6 10 9 21 6 23 -2 3 -7 -2 -11 -11z"/>
<path d="M5358 4343 c6 -2 18 -2 25 0 6 3 1 5 -13 5 -14 0 -19 -2 -12 -5z"/>
<path d="M5568 4343 c6 -2 18 -2 25 0 6 3 1 5 -13 5 -14 0 -19 -2 -12 -5z"/>
<path d="M7173 4315 c0 -22 2 -30 4 -17 2 12 2 30 0 40 -3 9 -5 -1 -4 -23z"/>
<path d="M5291 4329 c8 -5 34 -8 59 -8 53 1 44 6 -24 12 -30 3 -43 1 -35 -4z"/>
<path d="M5400 4336 c0 -2 11 -6 25 -8 14 -3 25 -1 25 3 0 5 -11 9 -25 9 -14
0 -25 -2 -25 -4z"/>
<path d="M5228 4323 c6 -2 18 -2 25 0 6 3 1 5 -13 5 -14 0 -19 -2 -12 -5z"/>
<path d="M5503 4323 c9 -2 23 -2 30 0 6 3 -1 5 -18 5 -16 0 -22 -2 -12 -5z"/>
<path d="M6438 4313 c6 -2 18 -2 25 0 6 3 1 5 -13 5 -14 0 -19 -2 -12 -5z"/>
<path d="M6508 4303 c7 -3 16 -2 19 1 4 3 -2 6 -13 5 -11 0 -14 -3 -6 -6z"/>
<path d="M5050 4290 l-45 -7 40 -1 c22 0 49 3 60 8 23 10 9 10 -55 0z"/>
<path d="M6320 4290 c0 -5 7 -7 15 -4 8 4 15 8 15 10 0 2 -7 4 -15 4 -8 0 -15
-4 -15 -10z"/>
<path d="M6429 4291 c12 -8 51 -4 51 5 0 2 -15 4 -32 4 -23 0 -29 -3 -19 -9z"/>
<path d="M4920 4270 c-11 -8 -7 -9 15 -5 28 6 29 5 8 -7 -20 -12 -18 -13 22
-13 24 0 41 4 38 8 -3 4 19 6 49 3 l53 -5 -45 9 c-25 5 -53 7 -62 4 -10 -3
-18 -1 -18 5 0 14 -40 14 -60 1z"/>
<path d="M5970 4230 c-23 -7 -23 -8 -3 -9 12 -1 25 4 28 9 3 6 5 10 3 9 -2 -1
-14 -5 -28 -9z"/>
<path d="M6040 4232 c8 -3 -7 -11 -35 -18 l-50 -13 45 6 c25 3 61 7 80 8 19 2
46 8 60 14 24 11 24 11 -5 5 -36 -8 -52 -9 -85 -2 -14 3 -18 3 -10 0z"/>
<path d="M7630 4226 c0 -2 13 -6 29 -8 17 -2 28 -1 25 4 -5 8 -54 12 -54 4z"/>
<path d="M4615 4210 c-3 -5 -22 -10 -41 -10 -19 0 -34 -4 -34 -9 0 -10 46 -29
75 -32 62 -5 75 12 23 29 -18 5 -25 10 -15 11 17 1 25 21 8 21 -6 0 -13 -4
-16 -10z m10 -30 l20 -9 -20 1 c-11 0 -31 4 -45 8 l-25 8 25 0 c14 0 34 -3 45
-8z"/>
<path d="M7753 4203 c9 -2 23 -2 30 0 6 3 -1 5 -18 5 -16 0 -22 -2 -12 -5z"/>
<path d="M7648 4193 c12 -2 32 -2 45 0 12 2 2 4 -23 4 -25 0 -35 -2 -22 -4z"/>
<path d="M4688 4153 c7 -3 16 -2 19 1 4 3 -2 6 -13 5 -11 0 -14 -3 -6 -6z"/>
<path d="M5576 4135 c28 -26 40 -32 30 -16 -4 5 0 12 6 14 7 3 3 6 -9 6 -12 1
-25 6 -28 11 -3 6 -11 10 -16 10 -6 0 2 -11 17 -25z"/>
<path d="M5668 4153 c6 -2 18 -2 25 0 6 3 1 5 -13 5 -14 0 -19 -2 -12 -5z"/>
<path d="M5730 4156 c0 -9 37 -12 55 -5 15 6 11 8 -17 8 -21 1 -38 -1 -38 -3z"/>
<path d="M7420 4156 c0 -2 7 -7 16 -10 8 -3 12 -2 9 4 -6 10 -25 14 -25 6z"/>
<path d="M5408 4143 c7 -3 16 -2 19 1 4 3 -2 6 -13 5 -11 0 -14 -3 -6 -6z"/>
<path d="M5643 4143 c4 -3 5 -9 1 -14 -3 -5 2 -9 10 -9 8 0 18 5 21 10 3 6 2
10 -4 10 -5 0 -15 2 -23 3 -7 2 -10 2 -5 0z"/>
<path d="M7320 4146 c0 -2 11 -6 25 -8 13 -3 22 -1 19 3 -5 9 -44 13 -44 5z"/>
<path d="M4945 4131 c-3 -5 -2 -12 3 -15 5 -3 9 1 9 9 0 17 -3 19 -12 6z"/>
<path d="M5520 4119 c0 -5 5 -7 10 -4 6 3 10 8 10 11 0 2 -4 4 -10 4 -5 0 -10
-5 -10 -11z"/>
<path d="M4970 4110 c0 -5 5 -10 10 -10 6 0 10 5 10 10 0 6 -4 10 -10 10 -5 0
-10 -4 -10 -10z"/>
<path d="M4990 4076 c0 -2 7 -7 16 -10 8 -3 12 -2 9 4 -6 10 -25 14 -25 6z"/>
<path d="M5398 4073 c7 -3 16 -2 19 1 4 3 -2 6 -13 5 -11 0 -14 -3 -6 -6z"/>
<path d="M4995 4040 c39 -26 55 -26 22 0 -14 11 -31 20 -39 20 -7 0 1 -9 17
-20z"/>
<path d="M5210 4050 c8 -5 31 -9 50 -9 l35 1 -30 8 c-16 4 -39 8 -50 9 -16 1
-17 -1 -5 -9z"/>
<path d="M7060 4039 c-19 -4 -53 -11 -75 -14 -280 -44 -934 -212 -1196 -307
l-67 -24 63 -32 c34 -18 132 -73 219 -121 86 -49 156 -85 156 -80 0 5 -4 9 -8
9 -5 0 -16 6 -26 13 -17 13 -16 14 11 14 18 0 76 25 144 63 63 35 159 88 214
118 55 30 152 82 215 117 63 34 153 83 200 108 129 69 176 97 162 97 -12 0
-131 -58 -142 -70 -3 -3 -40 -23 -83 -44 -42 -21 -80 -42 -83 -47 -2 -5 -24
-7 -47 -5 -44 4 -77 -7 -77 -26 0 -6 8 -4 18 5 22 20 39 23 23 4 -6 -8 -8 -17
-4 -20 3 -4 1 -7 -5 -7 -6 0 -18 -7 -27 -16 -9 -9 -27 -16 -40 -16 -14 0 -23
-4 -20 -8 2 -4 -8 -13 -23 -20 -32 -14 -44 -21 -136 -72 -69 -38 -108 -51 -72
-23 21 16 11 21 -12 7 -8 -5 -10 -16 -6 -27 5 -12 4 -16 -4 -11 -6 3 -13 2
-17 -3 -5 -9 -62 -41 -72 -41 -2 0 -2 4 2 9 3 5 0 13 -6 17 -7 4 -9 3 -5 -4 3
-6 -3 -12 -16 -15 -22 -4 -22 -4 2 -6 22 -1 19 -5 -24 -30 -43 -25 -68 -30
-118 -22 -4 1 -5 17 -4 36 4 35 -16 66 -29 45 -3 -5 2 -10 12 -11 14 0 13 -2
-5 -10 -13 -5 -20 -13 -17 -19 9 -14 -7 -12 -27 4 -10 7 -15 16 -11 20 4 4 -1
4 -11 0 -14 -5 -17 -4 -12 5 4 6 4 10 -1 9 -15 -4 -53 13 -53 24 0 6 -3 9 -6
5 -4 -3 -20 1 -36 9 -17 9 -28 18 -25 21 3 2 15 -1 27 -7 16 -9 20 -9 15 -1
-5 8 1 10 19 5 16 -4 26 -2 26 5 0 6 -7 8 -15 5 -11 -5 -13 -2 -9 9 5 13 -1
15 -33 13 -22 -2 -37 -7 -36 -14 4 -17 -16 -14 -56 7 l-33 18 35 16 c19 9 40
17 47 17 6 0 25 8 43 17 18 9 48 20 67 24 112 25 138 32 167 45 17 8 41 14 53
14 11 0 34 7 50 15 17 9 50 16 75 17 24 1 40 5 34 8 -5 4 37 16 93 28 57 11
129 28 162 37 32 9 64 14 72 11 7 -3 14 0 16 6 2 6 13 8 27 3 18 -6 21 -9 10
-16 -9 -6 -10 -9 -2 -9 20 0 25 20 7 27 -24 9 103 35 135 28 13 -3 33 1 45 9
31 20 57 22 85 7 21 -12 23 -11 18 3 -5 12 3 18 31 25 86 22 106 29 87 29 -11
0 -36 -4 -55 -9z m-183 -55 c-3 -3 -12 -4 -19 -1 -8 3 -5 6 6 6 11 1 17 -2 13
-5z m-161 -169 c-11 -8 -24 -15 -30 -15 -5 0 -1 7 10 15 10 8 24 14 29 14 6 0
1 -6 -9 -14z m-820 -157 c-9 -5 -23 -5 -32 0 -12 6 -7 9 16 9 23 0 28 -3 16
-9z m171 -124 c-3 -3 -12 -4 -19 -1 -8 3 -5 6 6 6 11 1 17 -2 13 -5z"/>
<path d="M1850 3786 l0 -184 53 -18 c53 -17 343 -133 407 -161 468 -212 823
-444 1174 -768 181 -168 384 -393 518 -578 40 -55 87 -118 104 -141 l30 -41
677 -3 c479 -1 677 1 677 9 0 24 -203 296 -325 434 -233 265 -452 461 -746
667 -163 115 -328 219 -469 296 -547 299 -1227 531 -1898 647 -79 14 -156 25
-173 25 l-29 0 0 -184z m1705 -1166 c10 -11 16 -20 13 -20 -3 0 -13 9 -23 20
-10 11 -16 20 -13 20 3 0 13 -9 23 -20z"/>
<path d="M6790 3960 c-8 -5 -10 -10 -5 -10 6 0 17 5 25 10 8 5 11 10 5 10 -5
0 -17 -5 -25 -10z"/>
<path d="M6843 3953 c9 -2 23 -2 30 0 6 3 -1 5 -18 5 -16 0 -22 -2 -12 -5z"/>
<path d="M6793 3933 c9 -2 23 -2 30 0 6 3 -1 5 -18 5 -16 0 -22 -2 -12 -5z"/>
<path d="M6748 3923 c7 -3 16 -2 19 1 4 3 -2 6 -13 5 -11 0 -14 -3 -6 -6z"/>
<path d="M6845 3921 c6 -11 2 -13 -19 -9 -30 6 -44 -8 -26 -25 9 -8 11 -8 7
-1 -4 7 3 12 19 12 32 0 41 9 24 25 -10 10 -11 9 -5 -2z"/>
<path d="M6455 3866 c22 -9 56 -15 75 -15 33 2 33 2 -10 10 -25 4 -58 10 -75
14 -22 4 -19 2 10 -9z"/>
<path d="M6734 3865 c-10 -8 -14 -14 -9 -15 15 0 40 18 34 24 -3 3 -14 -1 -25
-9z"/>
<path d="M8281 3869 c-18 -6 -31 -12 -29 -15 8 -7 68 8 68 17 0 5 -1 9 -2 8
-2 0 -18 -5 -37 -10z"/>
<path d="M6386 3855 c-16 -12 -17 -15 -4 -15 9 0 18 7 22 15 7 18 6 18 -18 0z"/>
<path d="M8220 3860 c0 -5 5 -10 10 -10 6 0 10 5 10 10 0 6 -4 10 -10 10 -5 0
-10 -4 -10 -10z"/>
<path d="M6423 3843 c9 -2 23 -2 30 0 6 3 -1 5 -18 5 -16 0 -22 -2 -12 -5z"/>
<path d="M8322 3627 c-2 -155 1 -198 11 -195 15 6 23 273 8 303 -6 11 -12 36
-14 55 -2 19 -5 -54 -5 -163z m15 -9 c-2 -13 -4 -3 -4 22 0 25 2 35 4 23 2
-13 2 -33 0 -45z"/>
<path d="M6168 3803 c6 -2 18 -2 25 0 6 3 1 5 -13 5 -14 0 -19 -2 -12 -5z"/>
<path d="M8060 3800 c0 -5 5 -10 10 -10 6 0 10 5 10 10 0 6 -4 10 -10 10 -5 0
-10 -4 -10 -10z"/>
<path d="M6105 3779 c-4 -6 -13 -8 -21 -5 -8 3 -14 1 -14 -4 0 -13 47 -13 55
0 3 5 12 7 20 3 8 -3 15 0 15 6 0 14 -47 14 -55 0z"/>
<path d="M6203 3773 c9 -2 23 -2 30 0 6 3 -1 5 -18 5 -16 0 -22 -2 -12 -5z"/>
<path d="M8028 3763 c6 -2 18 -2 25 0 6 3 1 5 -13 5 -14 0 -19 -2 -12 -5z"/>
<path d="M6480 3746 c0 -2 7 -7 16 -10 8 -3 12 -2 9 4 -6 10 -25 14 -25 6z"/>
<path d="M6538 3743 c7 -3 16 -2 19 1 4 3 -2 6 -13 5 -11 0 -14 -3 -6 -6z"/>
<path d="M5855 3712 c-11 -4 -21 -13 -23 -20 -2 -11 23 0 57 25 7 5 -12 2 -34
-5z"/>
<path d="M7668 3713 c7 -3 16 -2 19 1 4 3 -2 6 -13 5 -11 0 -14 -3 -6 -6z"/>
<path d="M7705 3700 c-19 -8 -19 -9 3 -9 12 -1 22 4 22 9 0 6 -1 10 -2 9 -2 0
-12 -4 -23 -9z"/>
<path d="M6381 3671 c-7 -5 -9 -11 -4 -14 5 -3 15 -2 22 2 7 5 9 11 4 14 -5 3
-15 2 -22 -2z"/>
<path d="M6330 3660 c-8 -5 -10 -10 -5 -10 6 0 17 5 25 10 8 5 11 10 5 10 -5
0 -17 -5 -25 -10z"/>
<path d="M7481 3651 c-22 -17 -22 -18 -5 -25 16 -6 16 -8 4 -16 -11 -7 -8 -10
13 -10 28 0 37 14 15 24 -10 5 -10 7 0 12 13 6 17 34 5 34 -5 0 -19 -9 -32
-19z"/>
<path d="M7410 3610 c-13 -8 -13 -10 2 -10 9 0 20 5 23 10 8 13 -5 13 -25 0z"/>
<path d="M6183 3586 c-13 -6 -23 -14 -23 -19 0 -9 36 9 45 23 3 6 5 9 3 9 -2
-1 -13 -6 -25 -13z"/>
<path d="M7110 3530 c-9 -6 -10 -10 -3 -10 6 0 15 5 18 10 8 12 4 12 -15 0z"/>
<path d="M7178 3528 c5 -5 16 -8 23 -6 8 3 3 7 -10 11 -17 4 -21 3 -13 -5z"/>
<path d="M6941 3471 c-12 -8 -9 -11 11 -16 15 -4 35 -5 45 -2 10 3 2 6 -17 7
-29 1 -32 3 -15 10 13 6 15 9 5 9 -8 0 -22 -3 -29 -8z"/>
<path d="M8190 3420 c-8 -6 -11 -10 -6 -10 5 0 1 -9 -9 -20 -16 -18 -17 -20
-1 -20 9 0 21 12 27 26 11 31 9 36 -11 24z"/>
<path d="M8250 3415 c-33 -19 -10 -19 26 0 16 8 22 15 14 15 -8 -1 -26 -7 -40
-15z"/>
<path d="M6770 3396 c0 -2 7 -6 15 -10 8 -3 15 -1 15 4 0 6 -7 10 -15 10 -8 0
-15 -2 -15 -4z"/>
<path d="M1853 3134 c4 -174 10 -270 21 -317 113 -490 481 -840 956 -912 135
-21 740 -21 740 -1 0 16 -150 232 -219 317 -172 210 -367 411 -546 564 -122
104 -307 237 -473 341 -141 89 -419 240 -461 251 l-23 6 5 -249z"/>
<path d="M8035 3350 c-16 -7 -17 -9 -3 -9 9 -1 20 4 23 9 7 11 7 11 -20 0z"/>
<path d="M8064 3335 c-10 -8 -14 -14 -9 -15 15 0 40 18 34 24 -3 3 -14 -1 -25
-9z"/>
<path d="M6585 3315 c-25 -12 -26 -14 -5 -9 14 4 29 10 35 15 12 12 5 11 -30
-6z"/>
<path d="M8020 3309 c0 -5 5 -7 10 -4 6 3 10 8 10 11 0 2 -4 4 -10 4 -5 0 -10
-5 -10 -11z"/>
<path d="M6610 3300 c-8 -5 -10 -10 -5 -10 6 0 17 5 25 10 8 5 11 10 5 10 -5
0 -17 -5 -25 -10z"/>
<path d="M7861 3244 c-24 -22 -24 -23 -3 -17 12 3 22 9 22 14 0 5 9 9 19 9 27
0 34 15 8 16 -12 1 -33 -9 -46 -22z"/>
<path d="M7759 3183 c-12 -16 -12 -17 1 -7 8 6 22 14 30 17 13 5 12 6 -1 6 -9
1 -23 -7 -30 -16z"/>
<path d="M7680 3180 c0 -5 5 -10 11 -10 8 0 8 -4 -1 -14 -10 -13 -8 -13 13 -3
22 10 23 13 8 24 -20 15 -31 16 -31 3z"/>
<path d="M6780 3110 c-13 -8 -13 -11 2 -26 15 -15 16 -14 15 10 -1 14 -2 26
-2 26 0 0 -7 -5 -15 -10z"/>
<path d="M7534 3101 c17 -18 17 -20 -1 -31 -17 -11 -17 -11 2 -5 38 12 94 40
95 48 0 10 -22 4 -38 -11 -9 -8 -19 -9 -26 -4 -6 5 -20 12 -30 16 -19 7 -19 6
-2 -13z"/>
<path d="M6752 3070 c7 -11 16 -20 20 -20 5 0 3 9 -4 20 -7 11 -16 20 -20 20
-5 0 -3 -9 4 -20z"/>
<path d="M6858 3019 c9 -10 17 -19 17 -19 0 0 1 8 1 18 0 10 -8 19 -17 19 -16
2 -17 0 -1 -18z"/>
<path d="M6825 3010 c-3 -5 -2 -10 4 -10 5 0 13 5 16 10 3 6 2 10 -4 10 -5 0
-13 -4 -16 -10z"/>
<path d="M7380 3010 c8 -5 20 -10 25 -10 6 0 3 5 -5 10 -8 5 -19 10 -25 10 -5
0 -3 -5 5 -10z"/>
<path d="M6845 2990 c-3 -5 -1 -10 4 -10 6 0 11 5 11 10 0 6 -2 10 -4 10 -3 0
-8 -4 -11 -10z"/>
<path d="M7208 2953 c7 -3 16 -2 19 1 4 3 -2 6 -13 5 -11 0 -14 -3 -6 -6z"/>
<path d="M7280 2945 c7 -8 20 -15 29 -15 13 1 13 3 -3 15 -26 19 -42 19 -26 0z"/>
<path d="M7235 2911 c-22 -11 -33 -20 -24 -20 19 -1 69 22 69 32 0 9 2 10 -45
-12z"/>
<path d="M7020 2867 c0 -20 -16 -23 -23 -4 -2 6 -7 9 -11 6 -3 -3 9 -19 27
-35 17 -16 26 -22 20 -14 -15 16 -17 34 -4 26 5 -4 8 1 7 9 -3 21 -16 31 -16
12z"/>
<path d="M7160 2870 c0 -6 7 -10 15 -10 8 0 15 2 15 4 0 2 -7 6 -15 10 -8 3
-15 1 -15 -4z"/>
<path d="M7120 2859 c0 -5 5 -7 10 -4 6 3 10 8 10 11 0 2 -4 4 -10 4 -5 0 -10
-5 -10 -11z"/>
<path d="M7075 2849 c-10 -15 3 -25 16 -12 7 7 7 13 1 17 -6 3 -14 1 -17 -5z"/>
</g>
</svg>
